<?xml version="1.0" encoding="utf-8"?>
<!-- Generator: Adobe Illustrator 19.2.0, SVG Export Plug-In . SVG Version: 6.00 Build 0)  -->
<svg version="1.1" id="Layer_1" xmlns="http://www.w3.org/2000/svg" xmlns:xlink="http://www.w3.org/1999/xlink" x="0px" y="0px"
	 viewBox="0 0 305.3 306.4" enable-background="new 0 0 305.3 306.4" xml:space="preserve">
<g opacity="0.1">
	<polygon fill="none" stroke="#B5B5B5" stroke-width="0.25" stroke-miterlimit="10" points="151.4,306 132.2,249.1 72.1,248.3 
		120.3,212.4 102.4,155 151.4,189.8 200.5,155 182.6,212.4 230.8,248.3 170.7,249.1 	"/>
	<polygon fill="none" stroke="#B5B5B5" stroke-width="0.25" stroke-miterlimit="10" points="203.6,297.3 166.1,250.3 109.4,270.1 
		142.4,219.9 106,172.1 164,188 198.3,138.6 201,198.6 258.6,216 202.3,237.2 	"/>
	<polygon fill="none" stroke="#B5B5B5" stroke-width="0.25" stroke-miterlimit="10" points="249.7,271.2 198.4,239.9 151.8,277.9 
		165.8,219.4 115.3,186.9 175.2,182 190.6,123.9 213.6,179.4 273.7,176.1 228,215.2 	"/>
	<polygon fill="none" stroke="#B5B5B5" stroke-width="0.25" stroke-miterlimit="10" points="284.2,231.1 225.3,219.1 194.4,270.7 
		187.6,211 129,197.6 183.7,172.6 178.3,112.8 218.9,157.1 274.2,133.5 244.6,185.8 	"/>
	<polygon fill="none" stroke="#B5B5B5" stroke-width="0.25" stroke-miterlimit="10" points="302.9,181.5 243.4,190.4 232,249.4 
		205.2,195.6 145.6,203 188.5,160.9 163,106.5 216.3,134.2 260.2,93.2 250.2,152.5 	"/>
	<polygon fill="none" stroke="#B5B5B5" stroke-width="0.25" stroke-miterlimit="10" points="303.5,128.6 250.7,157.2 260.1,216.6 
		216.5,175.2 163,202.5 189,148.2 146.4,105.8 206,113.7 233.3,60.1 244.2,119.2 	"/>
	<polygon fill="none" stroke="#B5B5B5" stroke-width="0.25" stroke-miterlimit="10" points="286.1,78.6 246.2,123.6 275.3,176.2 
		220.2,152.1 179.2,196 185.1,136.2 130.6,110.7 189.3,97.9 196.7,38.2 227.1,90.1 	"/>
	<polygon fill="none" stroke="#B5B5B5" stroke-width="0.25" stroke-miterlimit="10" points="252.7,37.6 230.5,93.5 275.8,133 
		215.8,129.1 192.2,184.4 177.3,126.1 117.5,120.8 168.3,88.7 154.9,30.1 201.1,68.5 	"/>
	<polygon fill="none" stroke="#B5B5B5" stroke-width="0.25" stroke-miterlimit="10" points="207.3,10.4 205.4,70.5 261.5,92.2 
		203.8,109 200.5,169 166.6,119.4 108.5,134.8 145.3,87.2 112.7,36.7 169.3,57.1 	"/>
	<polygon fill="none" stroke="#B5B5B5" stroke-width="0.25" stroke-miterlimit="10" points="155.3,0.4 174.1,57.5 234.2,58.8 
		185.7,94.3 203,151.8 154.3,116.6 104.9,150.9 123.3,93.7 75.4,57.4 135.5,57.2 	"/>
	<polygon fill="none" stroke="#B5B5B5" stroke-width="0.25" stroke-miterlimit="10" points="103,8.7 140.1,55.9 197.1,36.6 
		163.6,86.5 199.5,134.7 141.7,118.3 107,167.4 104.8,107.3 47.4,89.5 103.8,68.8 	"/>
	<polygon fill="none" stroke="#B5B5B5" stroke-width="0.25" stroke-miterlimit="10" points="56.7,34.3 107.7,66.1 154.7,28.5 
		140.2,86.8 190.4,119.8 130.5,124.1 114.6,182.1 92,126.4 31.9,129.2 77.9,90.5 	"/>
	<polygon fill="none" stroke="#B5B5B5" stroke-width="0.25" stroke-miterlimit="10" points="21.9,74.1 80.7,86.6 112,35.3 
		118.3,95.1 176.8,109 121.9,133.5 126.7,193.4 86.5,148.7 31,171.8 61,119.8 	"/>
	<polygon fill="none" stroke="#B5B5B5" stroke-width="0.25" stroke-miterlimit="10" points="2.8,123.5 62.3,115.2 74.2,56.3 
		100.6,110.3 160.3,103.4 117,145.1 142,199.8 88.9,171.6 44.7,212.2 55.1,153 	"/>
	<polygon fill="none" stroke="#B5B5B5" stroke-width="0.25" stroke-miterlimit="10" points="1.7,176.4 54.8,148.3 45.9,88.8 
		89,130.6 142.8,103.8 116.4,157.8 158.5,200.7 99,192.2 71.3,245.5 60.9,186.3 	"/>
	<polygon fill="none" stroke="#B5B5B5" stroke-width="0.25" stroke-miterlimit="10" points="18.6,226.5 59,182 30.3,129.1 
		85.2,153.7 126.6,110.1 120.2,169.9 174.4,195.8 115.6,208.2 107.7,267.8 77.7,215.6 	"/>
	<polygon fill="none" stroke="#B5B5B5" stroke-width="0.25" stroke-miterlimit="10" points="51.7,267.9 74.4,212.2 29.5,172.3 
		89.4,176.7 113.5,121.6 127.8,180 187.6,185.9 136.5,217.5 149.4,276.2 103.5,237.4 	"/>
	<polygon fill="none" stroke="#B5B5B5" stroke-width="0.25" stroke-miterlimit="10" points="96.9,295.4 99.2,235.4 43.4,213.2 
		101.2,196.9 105.1,136.9 138.4,186.9 196.7,172 159.5,219.2 191.6,270 135.2,249.2 	"/>
	<polygon fill="none" stroke="#B5B5B5" stroke-width="0.25" stroke-miterlimit="10" points="148.7,305.9 130.5,248.7 70.4,246.9 
		119.2,211.8 102.4,154.1 150.8,189.7 200.5,155.9 181.6,212.9 229.1,249.7 169,249.4 	"/>
	<polygon fill="none" stroke="#B5B5B5" stroke-width="0.25" stroke-miterlimit="10" points="201.1,298.1 164.4,250.5 107.3,269.3 
		141.2,219.7 105.7,171.2 163.4,188.2 198.5,139.4 200.2,199.5 257.5,217.8 200.8,238 	"/>
	<polygon fill="none" stroke="#B5B5B5" stroke-width="0.25" stroke-miterlimit="10" points="247.6,272.9 196.9,240.7 149.6,277.9 
		164.6,219.6 114.7,186.2 174.7,182.4 191.1,124.6 213.2,180.5 273.2,178.2 226.9,216.5 	"/>
	<polygon fill="none" stroke="#B5B5B5" stroke-width="0.25" stroke-miterlimit="10" points="282.8,233.4 224.1,220.4 192.3,271.4 
		186.6,211.6 128.2,197.2 183.3,173.2 179,113.2 218.9,158.2 274.5,135.6 244,187.4 	"/>
	<polygon fill="none" stroke="#B5B5B5" stroke-width="0.25" stroke-miterlimit="10" points="302.3,184.2 242.7,192 230.3,250.8 
		204.5,196.5 144.7,202.9 188.3,161.5 163.8,106.7 216.6,135.4 261.2,95.1 250.2,154.2 	"/>
	<polygon fill="none" stroke="#B5B5B5" stroke-width="0.25" stroke-miterlimit="10" points="303.9,131.3 250.6,159 258.9,218.5 
		216.1,176.3 162.1,202.6 189,148.9 147.3,105.7 206.7,114.6 234.9,61.6 244.7,120.9 	"/>
	<polygon fill="none" stroke="#B5B5B5" stroke-width="0.25" stroke-miterlimit="10" points="287.4,81 246.7,125.2 274.8,178.3 
		220.2,153.3 178.4,196.5 185.4,136.8 131.4,110.4 190.3,98.5 198.7,39 228.2,91.4 	"/>
	<polygon fill="none" stroke="#B5B5B5" stroke-width="0.25" stroke-miterlimit="10" points="254.7,39.4 231.5,94.9 276.1,135.2 
		216.2,130.2 191.6,185.1 177.8,126.6 118.1,120.2 169.4,89 157,30.2 202.6,69.4 	"/>
	<polygon fill="none" stroke="#B5B5B5" stroke-width="0.25" stroke-miterlimit="10" points="209.8,11.4 206.9,71.5 262.5,94.1 
		204.6,109.9 200.2,169.9 167.2,119.6 108.9,134 146.5,87.1 114.8,36.1 171,57.4 	"/>
	<polygon fill="none" stroke="#B5B5B5" stroke-width="0.25" stroke-miterlimit="10" points="158,0.5 175.8,57.9 235.8,60.2 
		186.7,94.8 203,152.7 154.9,116.7 105,150.1 124.4,93.2 77.1,56 137.2,56.9 	"/>
	<polygon fill="none" stroke="#B5B5B5" stroke-width="0.25" stroke-miterlimit="10" points="105.6,7.8 141.9,55.7 199.1,37.4 
		164.8,86.7 199.8,135.5 142.3,118.1 106.8,166.5 105.6,106.5 48.5,87.6 105.3,67.9 	"/>
	<polygon fill="none" stroke="#B5B5B5" stroke-width="0.25" stroke-miterlimit="10" points="58.8,32.6 109.3,65.3 156.9,28.5 
		141.4,86.6 191,120.5 131,123.7 114.1,181.4 92.5,125.3 32.4,127.1 79.1,89.2 	"/>
	<polygon fill="none" stroke="#B5B5B5" stroke-width="0.25" stroke-miterlimit="10" points="23.3,71.8 81.9,85.4 114.1,34.6 
		119.3,94.5 177.6,109.4 122.2,132.9 126,192.9 86.6,147.5 30.7,169.7 61.6,118.1 	"/>
	<polygon fill="none" stroke="#B5B5B5" stroke-width="0.25" stroke-miterlimit="10" points="3.3,120.8 63,113.6 76,54.9 
		101.3,109.4 161.1,103.6 117.1,144.5 141.2,199.6 88.6,170.4 43.6,210.3 55.2,151.3 	"/>
	<polygon fill="none" stroke="#B5B5B5" stroke-width="0.25" stroke-miterlimit="10" points="1.3,173.7 54.9,146.5 47,86.9 
		89.5,129.5 143.7,103.7 116.3,157.2 157.7,200.8 98.3,191.2 69.7,244.1 60.4,184.7 	"/>
	<polygon fill="none" stroke="#B5B5B5" stroke-width="0.25" stroke-miterlimit="10" points="17.4,224.1 58.5,180.3 30.8,127 
		85.2,152.5 127.4,109.7 119.9,169.3 173.6,196.2 114.6,207.5 105.6,266.9 76.6,214.3 	"/>
	<polygon fill="none" stroke="#B5B5B5" stroke-width="0.25" stroke-miterlimit="10" points="49.7,266.1 73.4,210.8 29.1,170.1 
		89,175.6 114,120.9 127.3,179.6 187,186.5 135.4,217.2 147.3,276.2 102.1,236.6 	"/>
	<polygon fill="none" stroke="#B5B5B5" stroke-width="0.25" stroke-miterlimit="10" points="94.4,294.4 97.8,234.4 42.3,211.2 
		100.5,196 105.4,136.1 137.9,186.6 196.3,172.8 158.3,219.3 189.5,270.6 133.5,248.8 	"/>
	<polygon fill="none" stroke="#B5B5B5" stroke-width="0.25" stroke-miterlimit="10" points="146,305.9 128.8,248.3 68.7,245.4 
		118.2,211.2 102.4,153.2 150.1,189.7 200.4,156.7 180.5,213.4 227.4,251 167.3,249.6 	"/>
	<polygon fill="none" stroke="#B5B5B5" stroke-width="0.25" stroke-miterlimit="10" points="198.5,299 162.7,250.7 105.2,268.5 
		140.1,219.5 105.4,170.4 162.8,188.4 198.7,140.2 199.4,200.3 256.3,219.7 199.3,238.9 	"/>
	<polygon fill="none" stroke="#B5B5B5" stroke-width="0.25" stroke-miterlimit="10" points="245.5,274.6 195.3,241.5 147.4,277.8 
		163.4,219.8 114.1,185.5 174.1,182.8 191.6,125.3 212.7,181.6 272.8,180.4 225.8,217.8 	"/>
	<polygon fill="none" stroke="#B5B5B5" stroke-width="0.25" stroke-miterlimit="10" points="281.3,235.7 222.9,221.6 190.2,272.1 
		185.5,212.2 127.4,196.7 183,173.7 179.7,113.7 218.8,159.4 274.8,137.8 243.4,189 	"/>
	<polygon fill="none" stroke="#B5B5B5" stroke-width="0.25" stroke-miterlimit="10" points="301.8,186.8 242,193.6 228.6,252.2 
		203.7,197.4 143.8,202.7 188.2,162.2 164.6,106.9 216.9,136.5 262.3,97 250.2,155.9 	"/>
	<polygon fill="none" stroke="#B5B5B5" stroke-width="0.25" stroke-miterlimit="10" points="304.3,134 250.5,160.7 257.8,220.4 
		215.7,177.4 161.2,202.8 189.1,149.5 148.1,105.6 207.4,115.6 236.5,63 245.3,122.5 	"/>
	<polygon fill="none" stroke="#B5B5B5" stroke-width="0.25" stroke-miterlimit="10" points="288.7,83.4 247.2,126.9 274.4,180.5 
		220.2,154.5 177.7,196.9 185.7,137.3 132.2,110 191.3,99.2 200.8,39.8 229.3,92.8 	"/>
	<polygon fill="none" stroke="#B5B5B5" stroke-width="0.25" stroke-miterlimit="10" points="256.7,41.2 232.5,96.3 276.4,137.3 
		216.6,131.3 191.1,185.8 178.3,127 118.6,119.6 170.6,89.3 159.2,30.2 204.1,70.3 	"/>
	<polygon fill="none" stroke="#B5B5B5" stroke-width="0.25" stroke-miterlimit="10" points="212.3,12.5 208.3,72.4 263.6,96.1 
		205.3,110.9 199.9,170.7 167.8,119.9 109.2,133.2 147.7,87 116.9,35.4 172.7,57.7 	"/>
	<polygon fill="none" stroke="#B5B5B5" stroke-width="0.25" stroke-miterlimit="10" points="160.7,0.6 177.4,58.3 237.5,61.7 
		187.7,95.5 203,153.6 155.6,116.7 105,149.2 125.4,92.7 78.9,54.7 138.9,56.6 	"/>
	<polygon fill="none" stroke="#B5B5B5" stroke-width="0.25" stroke-miterlimit="10" points="108.2,7 143.6,55.6 201.2,38.3 
		165.9,87 200.2,136.4 143,117.9 106.5,165.7 106.4,105.6 49.7,85.8 106.8,67.1 	"/>
	<polygon fill="none" stroke="#B5B5B5" stroke-width="0.25" stroke-miterlimit="10" points="61,30.9 110.8,64.5 159.1,28.6 
		142.6,86.4 191.6,121.2 131.5,123.4 113.6,180.7 93,124.3 32.9,124.9 80.2,87.9 	"/>
	<polygon fill="none" stroke="#B5B5B5" stroke-width="0.25" stroke-miterlimit="10" points="24.8,69.6 83.1,84.1 116.2,33.9 
		120.4,93.9 178.3,109.9 122.6,132.4 125.3,192.4 86.7,146.4 30.4,167.5 62.3,116.5 	"/>
	<polygon fill="none" stroke="#B5B5B5" stroke-width="0.25" stroke-miterlimit="10" points="3.9,118.2 63.7,112 77.7,53.5 
		102.1,108.5 162,103.7 117.3,143.9 140.3,199.4 88.3,169.3 42.6,208.4 55.2,149.6 	"/>
	<polygon fill="none" stroke="#B5B5B5" stroke-width="0.25" stroke-miterlimit="10" points="0.9,171 55,144.8 48.2,85.1 89.9,128.4 
		144.6,103.5 116.3,156.5 156.8,200.8 97.7,190.3 68.1,242.6 59.8,183 	"/>
	<polygon fill="none" stroke="#B5B5B5" stroke-width="0.25" stroke-miterlimit="10" points="16.1,221.7 58,178.6 31.3,124.8 
		85.2,151.3 128.1,109.2 119.6,168.7 172.9,196.6 113.6,206.8 103.6,266.1 75.6,212.9 	"/>
	<polygon fill="none" stroke="#B5B5B5" stroke-width="0.25" stroke-miterlimit="10" points="47.7,264.2 72.4,209.4 28.9,167.9 
		88.6,174.5 114.6,120.3 126.9,179.1 186.4,187.1 134.3,216.9 145.1,276.1 100.6,235.7 	"/>
	<polygon fill="none" stroke="#B5B5B5" stroke-width="0.25" stroke-miterlimit="10" points="91.9,293.4 96.4,233.4 41.3,209.3 
		99.7,195 105.7,135.2 137.3,186.4 196,173.5 157.1,219.4 187.5,271.3 131.8,248.5 	"/>
	<polygon fill="none" stroke="#B5B5B5" stroke-width="0.25" stroke-miterlimit="10" points="143.3,305.7 127.1,247.8 67.1,243.9 
		117.2,210.6 102.4,152.3 149.5,189.6 200.3,157.6 179.4,213.9 225.6,252.3 165.6,249.9 	"/>
	<polygon fill="none" stroke="#B5B5B5" stroke-width="0.25" stroke-miterlimit="10" points="195.9,299.8 160.9,250.9 103.2,267.7 
		138.9,219.3 105.1,169.6 162.1,188.5 199,141 198.5,201.2 255.1,221.5 197.8,239.7 	"/>
	<polygon fill="none" stroke="#B5B5B5" stroke-width="0.25" stroke-miterlimit="10" points="243.3,276.2 193.8,242.2 145.2,277.7 
		162.2,220 113.5,184.8 173.6,183.2 192.1,126 212.2,182.6 272.3,182.5 224.6,219.1 	"/>
	<polygon fill="none" stroke="#B5B5B5" stroke-width="0.25" stroke-miterlimit="10" points="279.9,237.9 221.7,222.9 188.1,272.8 
		184.5,212.8 126.7,196.3 182.6,174.3 180.4,114.2 218.6,160.6 275.1,139.9 242.8,190.6 	"/>
	<polygon fill="none" stroke="#B5B5B5" stroke-width="0.25" stroke-miterlimit="10" points="301.1,189.5 241.3,195.2 226.8,253.5 
		202.9,198.3 142.9,202.6 188,162.8 165.5,107.1 217.2,137.7 263.2,99 250.1,157.7 	"/>
	<polygon fill="none" stroke="#B5B5B5" stroke-width="0.25" stroke-miterlimit="10" points="304.6,136.7 250.3,162.4 256.6,222.2 
		215.3,178.5 160.4,202.9 189.2,150.2 149,105.5 208,116.6 238.1,64.5 245.8,124.1 	"/>
	<polygon fill="none" stroke="#B5B5B5" stroke-width="0.25" stroke-miterlimit="10" points="289.9,85.8 247.6,128.6 273.9,182.6 
		220.2,155.6 176.9,197.3 185.9,137.9 132.9,109.6 192.2,99.9 202.8,40.7 230.3,94.1 	"/>
	<polygon fill="none" stroke="#B5B5B5" stroke-width="0.25" stroke-miterlimit="10" points="258.7,43.1 233.5,97.7 276.7,139.5 
		217,132.5 190.5,186.4 178.7,127.5 119.2,119 171.7,89.6 161.4,30.4 205.5,71.2 	"/>
	<polygon fill="none" stroke="#B5B5B5" stroke-width="0.25" stroke-miterlimit="10" points="214.8,13.5 209.7,73.4 264.6,98.1 
		206.1,111.8 199.6,171.6 168.4,120.1 109.6,132.4 148.9,86.9 119,34.8 174.4,58.1 	"/>
	<polygon fill="none" stroke="#B5B5B5" stroke-width="0.25" stroke-miterlimit="10" points="163.4,0.7 179.1,58.8 239.1,63.2 
		188.7,96.1 203,154.5 156.2,116.8 105.1,148.4 126.5,92.2 80.6,53.4 140.7,56.4 	"/>
	<polygon fill="none" stroke="#B5B5B5" stroke-width="0.25" stroke-miterlimit="10" points="110.8,6.2 145.3,55.4 203.2,39.2 
		167.1,87.2 200.4,137.2 143.6,117.7 106.3,164.9 107.3,104.8 50.9,83.9 108.4,66.3 	"/>
	<polygon fill="none" stroke="#B5B5B5" stroke-width="0.25" stroke-miterlimit="10" points="63.2,29.3 112.4,63.8 161.3,28.8 
		143.7,86.3 192.1,121.9 132,123 113.1,180 93.5,123.2 33.4,122.8 81.4,86.6 	"/>
	<polygon fill="none" stroke="#B5B5B5" stroke-width="0.25" stroke-miterlimit="10" points="26.3,67.3 84.3,82.9 118.3,33.3 
		121.4,93.3 179.1,110.3 123,131.8 124.6,191.9 86.8,145.2 30.2,165.3 62.9,114.9 	"/>
	<polygon fill="none" stroke="#B5B5B5" stroke-width="0.25" stroke-miterlimit="10" points="4.6,115.6 64.5,110.4 79.5,52.2 
		102.9,107.6 162.9,103.9 117.5,143.3 139.5,199.2 88,168.1 41.7,206.4 55.3,147.8 	"/>
	<polygon fill="none" stroke="#B5B5B5" stroke-width="0.25" stroke-miterlimit="10" points="0.6,168.3 55.2,143.1 49.4,83.2 
		90.3,127.3 145.5,103.4 116.2,155.9 156,200.9 97,189.3 66.5,241.1 59.3,181.4 	"/>
	<polygon fill="none" stroke="#B5B5B5" stroke-width="0.25" stroke-miterlimit="10" points="14.9,219.3 57.6,176.9 31.8,122.7 
		85.2,150.1 128.9,108.8 119.3,168.2 172.1,196.9 112.7,206.1 101.6,265.2 74.5,211.6 	"/>
	<polygon fill="none" stroke="#B5B5B5" stroke-width="0.25" stroke-miterlimit="10" points="45.7,262.3 71.4,208 28.6,165.7 
		88.2,173.3 115.2,119.6 126.4,178.6 185.8,187.7 133.1,216.6 142.9,275.9 99.1,234.7 	"/>
	<polygon fill="none" stroke="#B5B5B5" stroke-width="0.25" stroke-miterlimit="10" points="89.4,292.3 94.9,232.4 40.3,207.3 
		99,194.1 106,134.4 136.7,186.1 195.6,174.3 155.9,219.5 185.4,271.9 130.1,248.1 	"/>
	<polygon fill="none" stroke="#B5B5B5" stroke-width="0.25" stroke-miterlimit="10" points="140.6,305.5 125.4,247.4 65.5,242.4 
		116.1,210 102.4,151.4 148.9,189.6 200.3,158.4 178.4,214.4 223.9,253.6 163.9,250.1 	"/>
	<polygon fill="none" stroke="#B5B5B5" stroke-width="0.25" stroke-miterlimit="10" points="193.3,300.5 159.2,251 101.2,266.8 
		137.7,219 104.8,168.7 161.5,188.7 199.2,141.9 197.7,202 253.9,223.3 196.3,240.5 	"/>
	<polygon fill="none" stroke="#B5B5B5" stroke-width="0.25" stroke-miterlimit="10" points="241.1,277.8 192.2,242.9 143,277.5 
		161.1,220.2 113,184.1 173.1,183.6 192.5,126.7 211.6,183.7 271.7,184.6 223.4,220.4 	"/>
	<polygon fill="none" stroke="#B5B5B5" stroke-width="0.25" stroke-miterlimit="10" points="278.3,240.2 220.4,224.1 186,273.4 
		183.4,213.3 125.9,195.8 182.2,174.8 181.1,114.7 218.5,161.8 275.3,142.1 242.1,192.2 	"/>
	<polygon fill="none" stroke="#B5B5B5" stroke-width="0.25" stroke-miterlimit="10" points="300.5,192.1 240.5,196.7 225,254.8 
		202.1,199.2 142.1,202.4 187.8,163.4 166.3,107.3 217.5,138.8 264.2,101 250.1,159.4 	"/>
	<polygon fill="none" stroke="#B5B5B5" stroke-width="0.25" stroke-miterlimit="10" points="304.9,139.4 250.1,164.2 255.3,224 
		214.8,179.6 159.5,203.1 189.2,150.8 149.8,105.4 208.7,117.6 239.7,66.1 246.3,125.8 	"/>
	<polygon fill="none" stroke="#B5B5B5" stroke-width="0.25" stroke-miterlimit="10" points="291,88.3 248,130.3 273.3,184.8 
		220.1,156.8 176.1,197.8 186.2,138.5 133.7,109.3 193.2,100.6 204.7,41.6 231.4,95.5 	"/>
	<polygon fill="none" stroke="#B5B5B5" stroke-width="0.25" stroke-miterlimit="10" points="260.6,45 234.5,99.1 276.9,141.7 
		217.3,133.6 189.9,187.1 179.2,128 119.9,118.4 172.8,90 163.6,30.6 207,72.1 	"/>
	<polygon fill="none" stroke="#B5B5B5" stroke-width="0.25" stroke-miterlimit="10" points="217.2,14.7 211.1,74.5 265.5,100.1 
		206.8,112.8 199.2,172.4 169,120.4 110,131.7 150,86.9 121.1,34.2 176.1,58.5 	"/>
	<polygon fill="none" stroke="#B5B5B5" stroke-width="0.25" stroke-miterlimit="10" points="166.1,1 180.8,59.2 240.6,64.8 
		189.7,96.7 203,155.4 156.9,116.8 105.2,147.5 127.6,91.8 82.4,52.1 142.4,56.2 	"/>
	<polygon fill="none" stroke="#B5B5B5" stroke-width="0.25" stroke-miterlimit="10" points="113.4,5.5 147.1,55.3 205.2,40.1 
		168.3,87.5 200.7,138.1 144.2,117.6 106.1,164.1 108.1,104 52.1,82.2 109.9,65.5 	"/>
	<polygon fill="none" stroke="#B5B5B5" stroke-width="0.25" stroke-miterlimit="10" points="65.4,27.8 114,63.1 163.5,28.9 
		144.9,86.1 192.7,122.6 132.6,122.6 112.6,179.3 94,122.2 33.9,120.7 82.6,85.4 	"/>
	<polygon fill="none" stroke="#B5B5B5" stroke-width="0.25" stroke-miterlimit="10" points="27.8,65.1 85.6,81.7 120.5,32.7 
		122.5,92.8 179.9,110.8 123.4,131.3 123.9,191.4 87,144 30,163.2 63.6,113.4 	"/>
	<polygon fill="none" stroke="#B5B5B5" stroke-width="0.25" stroke-miterlimit="10" points="5.3,112.9 65.2,108.9 81.3,50.9 
		103.7,106.7 163.8,104.1 117.7,142.6 138.7,198.9 87.8,167 40.8,204.4 55.4,146.1 	"/>
	<polygon fill="none" stroke="#B5B5B5" stroke-width="0.25" stroke-miterlimit="10" points="0.4,165.6 55.4,141.3 50.7,81.4 
		90.8,126.2 146.4,103.2 116.2,155.2 155.2,201 96.4,188.3 64.9,239.5 58.8,179.7 	"/>
	<polygon fill="none" stroke="#B5B5B5" stroke-width="0.25" stroke-miterlimit="10" points="13.8,216.9 57.2,175.3 32.3,120.5 
		85.3,148.9 129.7,108.4 119,167.6 171.3,197.3 111.8,205.4 99.7,264.3 73.5,210.2 	"/>
	<polygon fill="none" stroke="#B5B5B5" stroke-width="0.25" stroke-miterlimit="10" points="43.8,260.4 70.4,206.5 28.4,163.5 
		87.9,172.2 115.8,118.9 126,178.2 185.2,188.3 132,216.2 140.7,275.7 97.7,233.8 	"/>
	<polygon fill="none" stroke="#B5B5B5" stroke-width="0.25" stroke-miterlimit="10" points="86.9,291.1 93.5,231.4 39.4,205.3 
		98.3,193.1 106.3,133.6 136.1,185.8 195.2,175.1 154.8,219.5 183.2,272.4 128.5,247.7 	"/>
</g>
<g opacity="0.1">
	<ellipse fill="none" stroke="#B5B5B6" stroke-width="0.25" stroke-miterlimit="10" cx="152.7" cy="103.7" rx="27" ry="49.5"/>
	
		<ellipse transform="matrix(0.1866 -0.9824 0.9824 0.1866 28.9315 244.0761)" fill="none" stroke="#B5B5B6" stroke-width="0.25" stroke-miterlimit="10" cx="161.9" cy="104.6" rx="49.5" ry="27"/>
	
		<ellipse transform="matrix(0.3667 -0.9303 0.9303 0.3667 8.4955 226.7684)" fill="none" stroke="#B5B5B6" stroke-width="0.25" stroke-miterlimit="10" cx="170.8" cy="107.1" rx="49.5" ry="27"/>
	
		<ellipse transform="matrix(0.5338 -0.8456 0.8456 0.5338 -10.6387 203.325)" fill="none" stroke="#B5B5B6" stroke-width="0.25" stroke-miterlimit="10" cx="179.1" cy="111.3" rx="49.5" ry="27"/>
	
		<ellipse transform="matrix(0.6823 -0.7311 0.7311 0.6823 -26.2615 173.5122)" fill="none" stroke="#B5B5B6" stroke-width="0.25" stroke-miterlimit="10" cx="186.5" cy="117" rx="49.5" ry="27"/>
	
		<ellipse transform="matrix(0.8067 -0.591 0.591 0.8067 -35.9943 137.7732)" fill="none" stroke="#B5B5B6" stroke-width="0.25" stroke-miterlimit="10" cx="192.6" cy="123.9" rx="49.5" ry="27"/>
	
		<ellipse transform="matrix(0.9028 -0.43 0.43 0.9028 -37.5335 97.699)" fill="none" stroke="#B5B5B6" stroke-width="0.25" stroke-miterlimit="10" cx="197.4" cy="131.9" rx="49.5" ry="27"/>
	
		<ellipse transform="matrix(0.9672 -0.254 0.254 0.9672 -29.1319 55.5625)" fill="none" stroke="#B5B5B6" stroke-width="0.25" stroke-miterlimit="10" cx="200.6" cy="140.6" rx="49.5" ry="27"/>
	
		<ellipse transform="matrix(0.9976 -6.906851e-02 6.906851e-02 0.9976 -9.8635 14.3165)" fill="none" stroke="#B5B5B6" stroke-width="0.25" stroke-miterlimit="10" cx="202.1" cy="149.8" rx="49.5" ry="27"/>
	
		<ellipse transform="matrix(0.1183 -0.993 0.993 0.1183 19.9963 340.6215)" fill="none" stroke="#B5B5B6" stroke-width="0.25" stroke-miterlimit="10" cx="201.8" cy="159.1" rx="27" ry="49.5"/>
	
		<ellipse transform="matrix(0.3015 -0.9535 0.9535 0.3015 -20.6172 307.9805)" fill="none" stroke="#B5B5B6" stroke-width="0.25" stroke-miterlimit="10" cx="199.9" cy="168.1" rx="27" ry="49.5"/>
	
		<ellipse transform="matrix(0.4742 -0.8804 0.8804 0.4742 -52.2995 265.6354)" fill="none" stroke="#B5B5B6" stroke-width="0.25" stroke-miterlimit="10" cx="196.2" cy="176.6" rx="27" ry="49.5"/>
	
		<ellipse transform="matrix(0.6301 -0.7765 0.7765 0.6301 -72.4835 216.6234)" fill="none" stroke="#B5B5B6" stroke-width="0.25" stroke-miterlimit="10" cx="191.1" cy="184.4" rx="27" ry="49.5"/>
	
		<ellipse transform="matrix(0.764 -0.6453 0.6453 0.764 -79.6737 164.2226)" fill="none" stroke="#B5B5B6" stroke-width="0.25" stroke-miterlimit="10" cx="184.6" cy="191" rx="27" ry="49.5"/>
	
		<ellipse transform="matrix(0.8709 -0.4914 0.4914 0.8709 -73.6136 112.3186)" fill="none" stroke="#B5B5B6" stroke-width="0.25" stroke-miterlimit="10" cx="177" cy="196.3" rx="27" ry="49.5"/>
	
		<ellipse transform="matrix(0.9473 -0.3202 0.3202 0.9473 -55.2031 64.4941)" fill="none" stroke="#B5B5B6" stroke-width="0.25" stroke-miterlimit="10" cx="168.5" cy="200.1" rx="27" ry="49.5"/>
	
		<ellipse transform="matrix(0.9905 -0.1378 0.1378 0.9905 -26.3419 23.908)" fill="none" stroke="#B5B5B6" stroke-width="0.25" stroke-miterlimit="10" cx="159.5" cy="202.2" rx="27" ry="49.5"/>
	
		<ellipse transform="matrix(4.944248e-02 -0.9988 0.9988 4.944248e-02 -59.5843 342.6752)" fill="none" stroke="#B5B5B6" stroke-width="0.25" stroke-miterlimit="10" cx="150.2" cy="202.6" rx="49.5" ry="27"/>
	
		<ellipse transform="matrix(0.235 -0.972 0.972 0.235 -87.6822 291.1001)" fill="none" stroke="#B5B5B6" stroke-width="0.25" stroke-miterlimit="10" cx="141.1" cy="201.3" rx="49.5" ry="27"/>
	
		<ellipse transform="matrix(0.4122 -0.9111 0.9111 0.4122 -102.8547 237.0977)" fill="none" stroke="#B5B5B6" stroke-width="0.25" stroke-miterlimit="10" cx="132.3" cy="198.3" rx="49.5" ry="27"/>
	
		<ellipse transform="matrix(0.575 -0.8182 0.8182 0.575 -105.6757 183.9858)" fill="none" stroke="#B5B5B6" stroke-width="0.25" stroke-miterlimit="10" cx="124.2" cy="193.7" rx="49.5" ry="27"/>
	
		<ellipse transform="matrix(0.7176 -0.6965 0.6965 0.7176 -97.5676 134.5862)" fill="none" stroke="#B5B5B6" stroke-width="0.25" stroke-miterlimit="10" cx="117.2" cy="187.6" rx="49.5" ry="27"/>
	
		<ellipse transform="matrix(0.8349 -0.5504 0.5504 0.8349 -80.885 91.0896)" fill="none" stroke="#B5B5B6" stroke-width="0.25" stroke-miterlimit="10" cx="111.4" cy="180.4" rx="49.5" ry="27"/>
	
		<ellipse transform="matrix(0.923 -0.3849 0.3849 0.923 -58.0373 54.4485)" fill="none" stroke="#B5B5B6" stroke-width="0.25" stroke-miterlimit="10" cx="107" cy="172.2" rx="49.5" ry="27"/>
	
		<ellipse transform="matrix(0.9786 -0.2059 0.2059 0.9786 -31.4066 24.978)" fill="none" stroke="#B5B5B6" stroke-width="0.25" stroke-miterlimit="10" cx="104.3" cy="163.4" rx="49.5" ry="27"/>
	
		<ellipse transform="matrix(0.9998 -1.965778e-02 1.965778e-02 0.9998 -3.0093 2.0584)" fill="none" stroke="#B5B5B6" stroke-width="0.25" stroke-miterlimit="10" cx="103.2" cy="154.1" rx="49.5" ry="27"/>
	
		<ellipse transform="matrix(0.1673 -0.9859 0.9859 0.1673 -56.3329 223.0877)" fill="none" stroke="#B5B5B6" stroke-width="0.25" stroke-miterlimit="10" cx="103.9" cy="144.9" rx="27" ry="49.5"/>
	
		<ellipse transform="matrix(0.3483 -0.9374 0.9374 0.3483 -58.1484 188.1867)" fill="none" stroke="#B5B5B6" stroke-width="0.25" stroke-miterlimit="10" cx="106.3" cy="135.9" rx="27" ry="49.5"/>
	
		<ellipse transform="matrix(0.5171 -0.8559 0.8559 0.5171 -55.9498 156.0526)" fill="none" stroke="#B5B5B6" stroke-width="0.25" stroke-miterlimit="10" cx="110.3" cy="127.6" rx="27" ry="49.5"/>
	
		<ellipse transform="matrix(0.6677 -0.7444 0.7444 0.6677 -50.9531 126.1172)" fill="none" stroke="#B5B5B6" stroke-width="0.25" stroke-miterlimit="10" cx="115.8" cy="120.1" rx="27" ry="49.5"/>
	
		<ellipse transform="matrix(0.7949 -0.6067 0.6067 0.7949 -43.8737 97.7596)" fill="none" stroke="#B5B5B6" stroke-width="0.25" stroke-miterlimit="10" cx="122.7" cy="113.8" rx="27" ry="49.5"/>
	
		<ellipse transform="matrix(0.8942 -0.4477 0.4477 0.8942 -34.9533 69.9478)" fill="none" stroke="#B5B5B6" stroke-width="0.25" stroke-miterlimit="10" cx="130.5" cy="108.9" rx="27" ry="49.5"/>
	
		<ellipse transform="matrix(0.962 -0.273 0.273 0.962 -23.5375 42.0157)" fill="none" stroke="#B5B5B6" stroke-width="0.25" stroke-miterlimit="10" cx="139.2" cy="105.6" rx="27" ry="49.5"/>
	
		<ellipse transform="matrix(0.9961 -8.866164e-02 8.866164e-02 0.9961 -8.6282 13.5584)" fill="none" stroke="#B5B5B6" stroke-width="0.25" stroke-miterlimit="10" cx="148.3" cy="103.9" rx="27" ry="49.5"/>
	
		<ellipse transform="matrix(9.876733e-02 -0.9951 0.9951 9.876733e-02 38.6069 250.4193)" fill="none" stroke="#B5B5B6" stroke-width="0.25" stroke-miterlimit="10" cx="157.6" cy="103.9" rx="49.5" ry="27"/>
	
		<ellipse transform="matrix(0.2827 -0.9592 0.9592 0.2827 18.1955 235.6848)" fill="none" stroke="#B5B5B6" stroke-width="0.25" stroke-miterlimit="10" cx="166.7" cy="105.7" rx="49.5" ry="27"/>
	
		<ellipse transform="matrix(0.4568 -0.8896 0.8896 0.4568 -1.8643 215.1884)" fill="none" stroke="#B5B5B6" stroke-width="0.25" stroke-miterlimit="10" cx="175.3" cy="109.1" rx="49.5" ry="27"/>
	
		<ellipse transform="matrix(0.6147 -0.7887 0.7887 0.6147 -19.4842 188.36)" fill="none" stroke="#B5B5B6" stroke-width="0.25" stroke-miterlimit="10" cx="183.1" cy="114.1" rx="49.5" ry="27"/>
	
		<ellipse transform="matrix(0.7511 -0.6602 0.6602 0.7511 -32.2649 155.3497)" fill="none" stroke="#B5B5B6" stroke-width="0.25" stroke-miterlimit="10" cx="189.9" cy="120.5" rx="49.5" ry="27"/>
	
		<ellipse transform="matrix(0.8611 -0.5084 0.5084 0.8611 -37.9541 117.0656)" fill="none" stroke="#B5B5B6" stroke-width="0.25" stroke-miterlimit="10" cx="195.3" cy="128" rx="49.5" ry="27"/>
	
		<ellipse transform="matrix(0.9409 -0.3388 0.3388 0.9409 -34.4187 75.5874)" fill="none" stroke="#B5B5B6" stroke-width="0.25" stroke-miterlimit="10" cx="199.3" cy="136.4" rx="49.5" ry="27"/>
	
		<ellipse transform="matrix(0.9876 -0.1572 0.1572 0.9876 -20.3513 33.4986)" fill="none" stroke="#B5B5B6" stroke-width="0.25" stroke-miterlimit="10" cx="201.6" cy="145.4" rx="49.5" ry="27"/>
	
		<ellipse transform="matrix(2.979914e-02 -0.9996 0.9996 2.979914e-02 41.5696 352.0176)" fill="none" stroke="#B5B5B6" stroke-width="0.25" stroke-miterlimit="10" cx="202.1" cy="154.6" rx="27" ry="49.5"/>
	
		<ellipse transform="matrix(0.2158 -0.9764 0.9764 0.2158 -2.3602 324.8289)" fill="none" stroke="#B5B5B6" stroke-width="0.25" stroke-miterlimit="10" cx="201.1" cy="163.9" rx="27" ry="49.5"/>
	
		<ellipse transform="matrix(0.3942 -0.919 0.919 0.3942 -38.6189 286.7391)" fill="none" stroke="#B5B5B6" stroke-width="0.25" stroke-miterlimit="10" cx="198.2" cy="172.7" rx="27" ry="49.5"/>
	
		<ellipse transform="matrix(0.5588 -0.8293 0.8293 0.5588 -64.5162 240.4143)" fill="none" stroke="#B5B5B6" stroke-width="0.25" stroke-miterlimit="10" cx="193.7" cy="180.8" rx="27" ry="49.5"/>
	
		<ellipse transform="matrix(0.7037 -0.7105 0.7105 0.7037 -77.9404 189.1525)" fill="none" stroke="#B5B5B6" stroke-width="0.25" stroke-miterlimit="10" cx="187.8" cy="188" rx="27" ry="49.5"/>
	
		<ellipse transform="matrix(0.8239 -0.5667 0.5667 0.8239 -78.1186 136.5803)" fill="none" stroke="#B5B5B6" stroke-width="0.25" stroke-miterlimit="10" cx="180.7" cy="194" rx="27" ry="49.5"/>
	
		<ellipse transform="matrix(0.9152 -0.4029 0.4029 0.9152 -65.3541 86.3704)" fill="none" stroke="#B5B5B6" stroke-width="0.25" stroke-miterlimit="10" cx="172.6" cy="198.5" rx="27" ry="49.5"/>
	
		<ellipse transform="matrix(0.9743 -0.2251 0.2251 0.9743 -41.1315 42.0414)" fill="none" stroke="#B5B5B6" stroke-width="0.25" stroke-miterlimit="10" cx="163.8" cy="201.4" rx="27" ry="49.5"/>
	
		<ellipse transform="matrix(0.9992 -3.930878e-02 3.930878e-02 0.9992 -7.8443 6.2335)" fill="none" stroke="#B5B5B6" stroke-width="0.25" stroke-miterlimit="10" cx="154.6" cy="202.6" rx="27" ry="49.5"/>
	
		<ellipse transform="matrix(0.1478 -0.989 0.989 0.1478 -75.9996 315.959)" fill="none" stroke="#B5B5B6" stroke-width="0.25" stroke-miterlimit="10" cx="145.3" cy="202.1" rx="49.5" ry="27"/>
	
		<ellipse transform="matrix(0.3298 -0.944 0.944 0.3298 -97.2928 262.6858)" fill="none" stroke="#B5B5B6" stroke-width="0.25" stroke-miterlimit="10" cx="136.4" cy="199.9" rx="49.5" ry="27"/>
	
		<ellipse transform="matrix(0.5002 -0.8659 0.8659 0.5002 -105.8411 208.7228)" fill="none" stroke="#B5B5B6" stroke-width="0.25" stroke-miterlimit="10" cx="127.9" cy="196" rx="49.5" ry="27"/>
	
		<ellipse transform="matrix(0.653 -0.7574 0.7574 0.653 -102.6104 157.3729)" fill="none" stroke="#B5B5B6" stroke-width="0.25" stroke-miterlimit="10" cx="120.4" cy="190.7" rx="49.5" ry="27"/>
	
		<ellipse transform="matrix(0.7828 -0.6222 0.6222 0.7828 -89.7576 110.8455)" fill="none" stroke="#B5B5B6" stroke-width="0.25" stroke-miterlimit="10" cx="113.9" cy="184" rx="49.5" ry="27"/>
	
		<ellipse transform="matrix(0.8852 -0.4652 0.4652 0.8852 -69.4614 70.8851)" fill="none" stroke="#B5B5B6" stroke-width="0.25" stroke-miterlimit="10" cx="108.9" cy="176.2" rx="49.5" ry="27"/>
	
		<ellipse transform="matrix(0.9565 -0.2918 0.2918 0.9565 -44.3295 38.019)" fill="none" stroke="#B5B5B6" stroke-width="0.25" stroke-miterlimit="10" cx="105.3" cy="167.6" rx="49.5" ry="27"/>
	
		<ellipse transform="matrix(0.9941 -0.1082 0.1082 0.9941 -16.5423 12.1285)" fill="none" stroke="#B5B5B6" stroke-width="0.25" stroke-miterlimit="10" cx="103.5" cy="158.5" rx="49.5" ry="27"/>
	
		<ellipse transform="matrix(7.918249e-02 -0.9969 0.9969 7.918249e-02 -53.6222 240.5519)" fill="none" stroke="#B5B5B6" stroke-width="0.25" stroke-miterlimit="10" cx="103.4" cy="149.3" rx="27" ry="49.5"/>
	
		<ellipse transform="matrix(0.2638 -0.9646 0.9646 0.2638 -57.9423 204.3851)" fill="none" stroke="#B5B5B6" stroke-width="0.25" stroke-miterlimit="10" cx="104.9" cy="140.2" rx="27" ry="49.5"/>
	
		<ellipse transform="matrix(0.4392 -0.8984 0.8984 0.4392 -57.4171 170.9033)" fill="none" stroke="#B5B5B6" stroke-width="0.25" stroke-miterlimit="10" cx="108.2" cy="131.4" rx="27" ry="49.5"/>
	
		<ellipse transform="matrix(0.5991 -0.8007 0.8007 0.5991 -53.5283 140.0339)" fill="none" stroke="#B5B5B6" stroke-width="0.25" stroke-miterlimit="10" cx="113.1" cy="123.5" rx="27" ry="49.5"/>
	
		<ellipse transform="matrix(0.738 -0.6748 0.6748 0.738 -47.4366 111.0308)" fill="none" stroke="#B5B5B6" stroke-width="0.25" stroke-miterlimit="10" cx="119.3" cy="116.6" rx="27" ry="49.5"/>
	
		<ellipse transform="matrix(0.851 -0.5252 0.5252 0.851 -39.4629 83.1093)" fill="none" stroke="#B5B5B6" stroke-width="0.25" stroke-miterlimit="10" cx="126.7" cy="111.1" rx="27" ry="49.5"/>
	
		<ellipse transform="matrix(0.934 -0.3572 0.3572 0.934 -29.2814 55.2694)" fill="none" stroke="#B5B5B6" stroke-width="0.25" stroke-miterlimit="10" cx="135" cy="106.9" rx="27" ry="49.5"/>
	
		<ellipse transform="matrix(0.9843 -0.1766 0.1766 0.9843 -16.1951 27.0564)" fill="none" stroke="#B5B5B6" stroke-width="0.25" stroke-miterlimit="10" cx="143.9" cy="104.5" rx="27" ry="49.5"/>
	
		<ellipse transform="matrix(1.014626e-02 -0.9999 0.9999 1.014626e-02 47.9757 255.8205)" fill="none" stroke="#B5B5B6" stroke-width="0.25" stroke-miterlimit="10" cx="153.2" cy="103.7" rx="49.5" ry="27"/>
	
		<ellipse transform="matrix(0.1966 -0.9805 0.9805 0.1966 27.8424 243.2847)" fill="none" stroke="#B5B5B6" stroke-width="0.25" stroke-miterlimit="10" cx="162.4" cy="104.7" rx="49.5" ry="27"/>
	
		<ellipse transform="matrix(0.3761 -0.9266 0.9266 0.3761 7.4419 225.6673)" fill="none" stroke="#B5B5B6" stroke-width="0.25" stroke-miterlimit="10" cx="171.3" cy="107.3" rx="49.5" ry="27"/>
	
		<ellipse transform="matrix(0.5424 -0.8401 0.8401 0.5424 -11.6343 201.8986)" fill="none" stroke="#B5B5B6" stroke-width="0.25" stroke-miterlimit="10" cx="179.5" cy="111.6" rx="49.5" ry="27"/>
	
		<ellipse transform="matrix(0.6896 -0.7242 0.7242 0.6896 -26.9786 171.6807)" fill="none" stroke="#B5B5B6" stroke-width="0.25" stroke-miterlimit="10" cx="186.8" cy="117.3" rx="49.5" ry="27"/>
	
		<ellipse transform="matrix(0.8127 -0.5827 0.5827 0.8127 -36.314 135.6812)" fill="none" stroke="#B5B5B6" stroke-width="0.25" stroke-miterlimit="10" cx="192.9" cy="124.3" rx="49.5" ry="27"/>
	
		<ellipse transform="matrix(0.9071 -0.4209 0.4209 0.9071 -37.3255 95.4509)" fill="none" stroke="#B5B5B6" stroke-width="0.25" stroke-miterlimit="10" cx="197.6" cy="132.3" rx="49.5" ry="27"/>
	
		<ellipse transform="matrix(0.9697 -0.2442 0.2442 0.9697 -28.3785 53.2835)" fill="none" stroke="#B5B5B6" stroke-width="0.25" stroke-miterlimit="10" cx="200.7" cy="141.1" rx="49.5" ry="27"/>
	
		<ellipse transform="matrix(0.9983 -5.894031e-02 5.894031e-02 0.9983 -8.5077 12.1738)" fill="none" stroke="#B5B5B6" stroke-width="0.25" stroke-miterlimit="10" cx="202.1" cy="150.3" rx="49.5" ry="27"/>
	
		<ellipse transform="matrix(0.1284 -0.9917 0.9917 0.1284 17.6618 339.1009)" fill="none" stroke="#B5B5B6" stroke-width="0.25" stroke-miterlimit="10" cx="201.7" cy="159.5" rx="27" ry="49.5"/>
	
		<ellipse transform="matrix(0.3112 -0.9503 0.9503 0.3112 -22.6676 305.9562)" fill="none" stroke="#B5B5B6" stroke-width="0.25" stroke-miterlimit="10" cx="199.7" cy="168.6" rx="27" ry="49.5"/>
	
		<ellipse transform="matrix(0.4831 -0.8756 0.8756 0.4831 -53.7406 263.1981)" fill="none" stroke="#B5B5B6" stroke-width="0.25" stroke-miterlimit="10" cx="196" cy="177.1" rx="27" ry="49.5"/>
	
		<ellipse transform="matrix(0.638 -0.7701 0.7701 0.638 -73.1751 213.782)" fill="none" stroke="#B5B5B6" stroke-width="0.25" stroke-miterlimit="10" cx="190.8" cy="184.7" rx="27" ry="49.5"/>
	
		<ellipse transform="matrix(0.7705 -0.6375 0.6375 0.7705 -79.6848 161.3483)" fill="none" stroke="#B5B5B6" stroke-width="0.25" stroke-miterlimit="10" cx="184.2" cy="191.3" rx="27" ry="49.5"/>
	
		<ellipse transform="matrix(0.8759 -0.4825 0.4825 0.8759 -72.8919 109.5869)" fill="none" stroke="#B5B5B6" stroke-width="0.25" stroke-miterlimit="10" cx="176.6" cy="196.5" rx="27" ry="49.5"/>
	
		<ellipse transform="matrix(0.9505 -0.3106 0.3106 0.9505 -53.8631 62.1114)" fill="none" stroke="#B5B5B6" stroke-width="0.25" stroke-miterlimit="10" cx="168.1" cy="200.2" rx="27" ry="49.5"/>
	
		<ellipse transform="matrix(0.9918 -0.1277 0.1277 0.9918 -24.5332 21.9602)" fill="none" stroke="#B5B5B6" stroke-width="0.25" stroke-miterlimit="10" cx="159" cy="202.3" rx="27" ry="49.5"/>
	
		<ellipse transform="matrix(5.957586e-02 -0.9982 0.9982 5.957586e-02 -61.4295 340.0367)" fill="none" stroke="#B5B5B6" stroke-width="0.25" stroke-miterlimit="10" cx="149.8" cy="202.6" rx="49.5" ry="27"/>
	
		<ellipse transform="matrix(0.2448 -0.9696 0.9696 0.2448 -88.8183 288.2422)" fill="none" stroke="#B5B5B6" stroke-width="0.25" stroke-miterlimit="10" cx="140.6" cy="201.1" rx="49.5" ry="27"/>
	
		<ellipse transform="matrix(0.4214 -0.9069 0.9069 0.4214 -103.3461 234.1964)" fill="none" stroke="#B5B5B6" stroke-width="0.25" stroke-miterlimit="10" cx="131.9" cy="198.1" rx="49.5" ry="27"/>
	
		<ellipse transform="matrix(0.5833 -0.8123 0.8123 0.5833 -105.4971 181.1866)" fill="none" stroke="#B5B5B6" stroke-width="0.25" stroke-miterlimit="10" cx="123.8" cy="193.4" rx="49.5" ry="27"/>
	
		<ellipse transform="matrix(0.7246 -0.6892 0.6892 0.7246 -96.9159 132.1015)" fill="none" stroke="#B5B5B6" stroke-width="0.25" stroke-miterlimit="10" cx="116.8" cy="187.3" rx="49.5" ry="27"/>
	
		<ellipse transform="matrix(0.8405 -0.5419 0.5419 0.8405 -79.8057 88.9262)" fill="none" stroke="#B5B5B6" stroke-width="0.25" stroke-miterlimit="10" cx="111.1" cy="180" rx="49.5" ry="27"/>
	
		<ellipse transform="matrix(0.9268 -0.3755 0.3755 0.9268 -56.6946 52.6823)" fill="none" stroke="#B5B5B6" stroke-width="0.25" stroke-miterlimit="10" cx="106.8" cy="171.8" rx="49.5" ry="27"/>
	
		<ellipse transform="matrix(0.9806 -0.1959 0.1959 0.9806 -29.8924 23.5688)" fill="none" stroke="#B5B5B6" stroke-width="0.25" stroke-miterlimit="10" cx="104.2" cy="162.9" rx="49.5" ry="27"/>
	
		<ellipse transform="matrix(1 -9.512398e-03 9.512398e-03 1 -1.4565 0.9887)" fill="none" stroke="#B5B5B6" stroke-width="0.25" stroke-miterlimit="10" cx="103.2" cy="153.6" rx="49.5" ry="27"/>
	
		<ellipse transform="matrix(0.1773 -0.9842 0.9842 0.1773 -56.5379 221.1262)" fill="none" stroke="#B5B5B6" stroke-width="0.25" stroke-miterlimit="10" cx="104" cy="144.4" rx="27" ry="49.5"/>
	
		<ellipse transform="matrix(0.3578 -0.9338 0.9338 0.3578 -58.0783 186.4489)" fill="none" stroke="#B5B5B6" stroke-width="0.25" stroke-miterlimit="10" cx="106.5" cy="135.4" rx="27" ry="49.5"/>
	
		<ellipse transform="matrix(0.5258 -0.8506 0.8506 0.5258 -55.7104 154.412)" fill="none" stroke="#B5B5B6" stroke-width="0.25" stroke-miterlimit="10" cx="110.6" cy="127.2" rx="27" ry="49.5"/>
	
		<ellipse transform="matrix(0.6753 -0.7376 0.7376 0.6753 -50.5944 124.6262)" fill="none" stroke="#B5B5B6" stroke-width="0.25" stroke-miterlimit="10" cx="116.2" cy="119.8" rx="27" ry="49.5"/>
	
		<ellipse transform="matrix(0.801 -0.5986 0.5986 0.801 -43.4429 96.2512)" fill="none" stroke="#B5B5B6" stroke-width="0.25" stroke-miterlimit="10" cx="123.1" cy="113.5" rx="27" ry="49.5"/>
	
		<ellipse transform="matrix(0.8987 -0.4386 0.4386 0.8987 -34.4 68.469)" fill="none" stroke="#B5B5B6" stroke-width="0.25" stroke-miterlimit="10" cx="131" cy="108.7" rx="27" ry="49.5"/>
	
		<ellipse transform="matrix(0.9647 -0.2632 0.2632 0.9647 -22.8134 40.483)" fill="none" stroke="#B5B5B6" stroke-width="0.25" stroke-miterlimit="10" cx="139.7" cy="105.4" rx="27" ry="49.5"/>
</g>
<circle opacity="0.1" fill="#FFFFFF" cx="152.7" cy="153.2" r="7.3"/>
</svg>
