<svg id="Layer_1" data-name="Layer 1" xmlns="http://www.w3.org/2000/svg" viewBox="0 0 63.13 63.13"><defs><style>.cls-1{fill:#fff;}.cls-2{fill:#231f20;}</style></defs><title>facebook</title><path class="cls-1" d="M2606.58,1895.44a27.37,27.37,0,1,0,27.37,27.37A27.37,27.37,0,0,0,2606.58,1895.44Z" transform="translate(-2575.14 -1891.25)"/><path class="cls-2" d="M2606.7,1891.25a31.56,31.56,0,1,0,31.56,31.57A31.57,31.57,0,0,0,2606.7,1891.25Zm8.52,31.87h-6.35v17h-6.47v-17h-4.49V1917h4.49v-5.23c0-4.11,2.66-7.88,8.77-7.88a37.3,37.3,0,0,1,4.31.24l-0.14,5.72-3.91,0c-2.2,0-2.56,1-2.56,2.7V1917h6.64Z" transform="translate(-2575.14 -1891.25)"/></svg>