<svg id="Layer_1" data-name="Layer 1" xmlns="http://www.w3.org/2000/svg" viewBox="0 0 63.11 63.11"><defs><style>.cls-1{fill:#231f20;}</style></defs><title>instagram</title><rect class="cls-1" x="38.47" y="19.11" width="4.65" height="4.65" rx="0.91" ry="0.91"/><path class="cls-1" d="M2524.06,1891.26a31.56,31.56,0,1,0,31.55,31.56A31.56,31.56,0,0,0,2524.06,1891.26Zm16.46,39.86a8.24,8.24,0,0,1-8.23,8.23h-16.47a8.24,8.24,0,0,1-8.23-8.23v-11.26h9.56a7.82,7.82,0,1,0,14.15,0h9.22v11.26Zm-19.54-7.94a3.25,3.25,0,1,1,3.25,3.25A3.25,3.25,0,0,1,2521,1923.17Zm19.54-6.37h-11.77a7.79,7.79,0,0,0-9,0h-12.11v-2.29a8.24,8.24,0,0,1,8.23-8.23h16.47a8.24,8.24,0,0,1,8.23,8.23v2.29Z" transform="translate(-2492.5 -1891.26)"/></svg>