<svg id="Layer_1" data-name="Layer 1" xmlns="http://www.w3.org/2000/svg" viewBox="0 0 478.79 138.41"><defs><style>.cls-1{fill:#231f20;}.cls-2{fill:#c10a47;}.cls-3{fill:#da3444;}.cls-4{fill:#ad0e43;}.cls-5{fill:#810f9b;}.cls-6{fill:#c6317b;}.cls-7{fill:#b52984;}.cls-8{fill:#d33776;}.cls-9{fill:#6300aa;}.cls-10{fill:#a31f8c;}.cls-11{fill:#8c1499;}.cls-12{fill:#db0f4a;}.cls-13{fill:#fff;}</style></defs><title>BlaakAdvisor_Logo_Final</title><path class="cls-1" d="M292.72,1066.52l0-14.27h1.63l0,14.27h-1.63Z" transform="translate(-104.88 -950.62)"/><path class="cls-1" d="M311.71,1066.5l-8.58-11.44,0,11.46h-1.63l0-14.27h1.69l8.58,11.46,0-11.48h1.61l0,14.27h-1.67Z" transform="translate(-104.88 -950.62)"/><path class="cls-1" d="M330.77,1066.47L322.19,1055l0,11.46h-1.63l0-14.27h1.69l8.58,11.46,0-11.48h1.61l0,14.27h-1.67Z" transform="translate(-104.88 -950.62)"/><path class="cls-1" d="M353.21,1059.3a7.48,7.48,0,1,1-7.47-7.17A7.3,7.3,0,0,1,353.21,1059.3Zm-13.29,0a5.81,5.81,0,1,0,5.82-5.64A5.75,5.75,0,0,0,339.92,1059.32Z" transform="translate(-104.88 -950.62)"/><path class="cls-1" d="M362.62,1066.42l-5.81-14.26h1.75l4.93,12.37,4.92-12.38h1.71l-5.81,14.28h-1.69Z" transform="translate(-104.88 -950.62)"/><path class="cls-1" d="M375.57,1062.79L374,1066.4h-1.73l6.38-14.28h1.69l6.4,14.26H385l-1.6-3.61h-7.79Zm3.86-8.81-3.17,7.24h6.4Z" transform="translate(-104.88 -950.62)"/><path class="cls-1" d="M394.82,1053.67l0,12.7H393.2l0-12.7h-4.65v-1.57l10.95,0v1.57h-4.67Z" transform="translate(-104.88 -950.62)"/><path class="cls-1" d="M404.72,1066.36l0-14.27h1.63l0,14.27h-1.63Z" transform="translate(-104.88 -950.62)"/><path class="cls-1" d="M417.27,1066.34l-5.81-14.26h1.75l4.93,12.37,4.92-12.38h1.71L419,1066.34h-1.69Z" transform="translate(-104.88 -950.62)"/><path class="cls-1" d="M431.54,1053.62v4.69h7.2v1.57h-7.2v4.89h8.32v1.55h-9.95l0-14.27h9.68v1.57h-8.05Z" transform="translate(-104.88 -950.62)"/><path class="cls-1" d="M454.48,1066.29l0-14.27h1.63l0,14.27h-1.63Z" transform="translate(-104.88 -950.62)"/><path class="cls-1" d="M473.48,1066.26l-8.58-11.44,0,11.46h-1.63l0-14.27H465l8.58,11.46,0-11.48h1.61l0,14.27h-1.67Z" transform="translate(-104.88 -950.62)"/><path class="cls-1" d="M486.09,1066.24L480.28,1052H482l4.93,12.37,4.92-12.38h1.71l-5.81,14.28h-1.69Z" transform="translate(-104.88 -950.62)"/><path class="cls-1" d="M500.36,1053.52v4.69h7.2v1.57h-7.2v4.89h8.32v1.55h-9.95l0-14.27h9.68v1.57h-8.05Z" transform="translate(-104.88 -950.62)"/><path class="cls-1" d="M523.61,1053.18l-0.69,1.53a7.37,7.37,0,0,0-3.94-1.2c-1.83,0-3,.7-3,1.9,0,3.67,8,1.74,8,6.92,0,2.38-2.09,3.92-5.15,3.92a8.14,8.14,0,0,1-5.47-2.17l0.73-1.47a7.1,7.1,0,0,0,4.75,2c2.06,0,3.34-.84,3.34-2.21,0-3.75-8-1.74-8-6.86,0-2.24,2-3.69,4.93-3.7A8.42,8.42,0,0,1,523.61,1053.18Z" transform="translate(-104.88 -950.62)"/><path class="cls-1" d="M534.49,1053.47l0,12.7h-1.63l0-12.7h-4.65v-1.57l10.95,0v1.57h-4.67Z" transform="translate(-104.88 -950.62)"/><path class="cls-1" d="M544.39,1066.15l0-14.27H546l0,14.27h-1.63Z" transform="translate(-104.88 -950.62)"/><path class="cls-1" d="M563.39,1066.13l-8.58-11.45,0,11.46H553.2l0-14.27h1.69l8.58,11.46,0-11.48H565l0,14.27h-1.67Z" transform="translate(-104.88 -950.62)"/><path class="cls-1" d="M583.64,1059.13v5.18a8.82,8.82,0,0,1-5.3,1.88,7.2,7.2,0,1,1,.06-14.39,8.08,8.08,0,0,1,5.26,1.95l-0.94,1.22a6.57,6.57,0,0,0-4.32-1.64,5.66,5.66,0,1,0,0,11.31,6.82,6.82,0,0,0,3.75-1.21v-4.3h1.45Z" transform="translate(-104.88 -950.62)"/><path class="cls-1" d="M314.65,977.52c10.68,0,16.86,5,16.87,13.66,0,7-3.94,11.63-10.9,12.83,8.78,1,13.85,6.15,13.86,14,0,9.41-7.18,14.8-19.75,14.82l-22.23,0-0.08-55.29ZM294,1003.41l20.65,0c9.73,0,15.26-4.45,15.25-12.21s-5.56-12.09-15.29-12.08l-20.65,0Zm0,27.84,20.65,0c11.63,0,18.27-4.85,18.25-13.32,0-8.31-6.66-13-18.29-13l-20.65,0Z" transform="translate(-104.88 -950.62)"/><path class="cls-1" d="M387.74,1031.12v1.58l-26.34,0-0.08-55.29h1.58l0.08,53.71Z" transform="translate(-104.88 -950.62)"/><path class="cls-1" d="M412.32,1015.82l-7.65,16.86h-1.9L428,977.35h1.74l25.71,55.25h-1.82l-7.78-16.84Zm16.56-36.65L413,1014.23l32.12,0Z" transform="translate(-104.88 -950.62)"/><path class="cls-1" d="M477.66,1015.72L470,1032.58h-1.9l25.23-55.33h1.74l25.71,55.25H519l-7.78-16.84Zm16.56-36.65-15.85,35.06,32.12,0Z" transform="translate(-104.88 -950.62)"/><path class="cls-1" d="M557.38,1003.18l-13,14.18,0,15.11h-1.58l-0.08-55.29h1.58l0.06,37.89,34.91-37.94h2.21l-23,24.87,24.8,30.42h-2.14Z" transform="translate(-104.88 -950.62)"/><polygon class="cls-2" points="69.29 122.96 115.16 95.41 115.16 42.93 69.29 15.38 69.29 122.96"/><path class="cls-3" d="M128.13,968.1a69.1,69.1,0,0,0-22,38.77l22-13.23V968.1Z" transform="translate(-104.88 -950.62)"/><path class="cls-4" d="M174.17,966l-20.5-12.31a69.09,69.09,0,0,0-25.54,14.41v25.55Z" transform="translate(-104.88 -950.62)"/><path class="cls-3" d="M194.61,953.72a69.56,69.56,0,0,0-40.95,0L174.17,966Z" transform="translate(-104.88 -950.62)"/><path class="cls-5" d="M242,1006.76a69.1,69.1,0,0,0-22-38.66v25.45Z" transform="translate(-104.88 -950.62)"/><path class="cls-6" d="M220,993.54V968.1a69.09,69.09,0,0,0-25.42-14.38L174.17,966Z" transform="translate(-104.88 -950.62)"/><path class="cls-4" d="M153.58,1085.94a69.59,69.59,0,0,0,41.12,0l-20.53-12.33Z" transform="translate(-104.88 -950.62)"/><path class="cls-7" d="M220,1071.55a69.1,69.1,0,0,0,22-38.75L220,1046v25.53Z" transform="translate(-104.88 -950.62)"/><path class="cls-8" d="M174.17,1073.57l20.53,12.33A69.09,69.09,0,0,0,220,1071.55V1046Z" transform="translate(-104.88 -950.62)"/><path class="cls-9" d="M242,1006.76l-22-13.21V1046l22-13.22A69,69,0,0,0,242,1006.76Z" transform="translate(-104.88 -950.62)"/><path class="cls-8" d="M128.13,993.64l-22,13.23a68.88,68.88,0,0,0,0,25.82l22,13.24V993.64Z" transform="translate(-104.88 -950.62)"/><path class="cls-10" d="M128.13,1045.93v25.62a69.09,69.09,0,0,0,25.45,14.39l20.59-12.36Z" transform="translate(-104.88 -950.62)"/><path class="cls-11" d="M106.09,1032.69a69.1,69.1,0,0,0,22,38.86v-25.62Z" transform="translate(-104.88 -950.62)"/><path class="cls-12" d="M174.17,966l-46,27.65v52.28l46,27.65m0-107.58-0.08,32.58h4v42.49h-4m0,32.51v-32.51h-4V998.58h4" transform="translate(-104.88 -950.62)"/><rect class="cls-13" x="62.13" y="46.7" width="14.19" height="45.01"/><rect class="cls-13" x="67.12" width="4.18" height="47.96"/><rect class="cls-13" x="67.12" y="90.45" width="4.18" height="47.96"/></svg>