<svg id="Layer_1" data-name="Layer 1" xmlns="http://www.w3.org/2000/svg" viewBox="0 0 63.11 63.11"><defs><style>.cls-1{fill:#fff;}.cls-2{fill:#231f20;}</style></defs><title>twitter</title><path class="cls-1" d="M2684.08,1895.44a27.37,27.37,0,1,0,27.37,27.37A27.37,27.37,0,0,0,2684.08,1895.44Z" transform="translate(-2652.53 -1891.26)"/><path class="cls-2" d="M2684.08,1891.26a31.56,31.56,0,1,0,31.55,31.56A31.56,31.56,0,0,0,2684.08,1891.26Zm15.83,25q0,0.46,0,.93c0,9.5-7.23,20.46-20.46,20.46a20.36,20.36,0,0,1-11-3.23,14.63,14.63,0,0,0,1.71.1,14.42,14.42,0,0,0,8.93-3.08,7.2,7.2,0,0,1-6.72-5,7.21,7.21,0,0,0,3.25-.12,7.19,7.19,0,0,1-5.77-7s0-.06,0-0.09a7.15,7.15,0,0,0,3.26.9,7.2,7.2,0,0,1-2.23-9.6,20.41,20.41,0,0,0,14.82,7.51,7.19,7.19,0,0,1,12.25-6.56,14.39,14.39,0,0,0,4.57-1.75,7.21,7.21,0,0,1-3.16,4,14.36,14.36,0,0,0,4.13-1.13A14.61,14.61,0,0,1,2699.91,1916.27Z" transform="translate(-2652.53 -1891.26)"/></svg>